<svg width="110" height="110" viewBox="0 0 110 110" fill="none" xmlns="http://www.w3.org/2000/svg">
<path d="M110 55C110 85.3757 85.3757 110 55 110C24.6243 110 0 85.3757 0 55C0 24.6243 24.6243 0 55 0C85.3757 0 110 24.6243 110 55Z" fill="#D9D9D9"/>
<path d="M75.096 72.352H77.592V88H31.608V85.504L36.888 84.928C37.912 84.8 38.52 84.544 38.712 84.16C38.904 83.776 39 82.464 39 80.224V30.496C39 28.256 38.904 26.944 38.712 26.56C38.52 26.176 37.912 25.92 36.888 25.792L31.608 25.312V22.72H76.344V38.368H73.944L71.16 28.288C70.968 27.52 70.744 26.976 70.488 26.656C70.296 26.272 69.88 26.048 69.24 25.984C68.6 25.856 67.512 25.792 65.976 25.792H47.352V53.536H60.216C61.752 53.536 62.84 53.504 63.48 53.44C64.12 53.312 64.536 53.088 64.728 52.768C64.984 52.384 65.208 51.808 65.4 51.04L67.224 43.84H69.72V66.304H67.224L65.4 59.104C65.208 58.336 64.984 57.792 64.728 57.472C64.536 57.088 64.12 56.864 63.48 56.8C62.84 56.672 61.752 56.608 60.216 56.608H47.352V84.928H67.128C68.664 84.928 69.752 84.896 70.392 84.832C71.032 84.704 71.448 84.48 71.64 84.16C71.896 83.776 72.12 83.2 72.312 82.432L75.096 72.352Z" fill="black"/>
</svg>
